<?xml version="1.0" encoding="UTF-8" standalone="no"?>
<!DOCTYPE svg PUBLIC "-//W3C//DTD SVG 1.1//EN" "http://www.w3.org/Graphics/SVG/1.1/DTD/svg11.dtd">
<svg xmlns="http://www.w3.org/2000/svg" version="1.1" viewBox="0.00 0.00 2196.00 492.00">
<path fill="#9e918d" d="
  M 1864.90 330.17
  C 1861.11 331.71 1857.32 333.60 1853.67 334.97
  Q 1848.14 337.04 1842.64 339.19
  Q 1836.89 341.43 1833.58 341.30
  C 1824.82 340.96 1820.87 334.70 1816.88 327.25
  C 1810.26 314.90 1795.58 296.64 1798.35 283.67
  Q 1798.46 283.14 1798.90 282.81
  L 1824.47 263.81
  Q 1824.95 263.46 1824.87 262.87
  Q 1823.45 252.00 1825.01 241.16
  Q 1825.08 240.67 1824.68 240.36
  Q 1817.24 234.63 1805.93 225.09
  C 1799.61 219.76 1795.17 213.26 1799.59 204.90
  C 1806.30 192.20 1812.86 178.28 1821.06 166.51
  C 1823.14 163.54 1827.48 162.14 1830.89 161.30
  Q 1833.61 160.64 1836.60 161.37
  C 1843.57 163.09 1849.11 166.56 1856.00 168.97
  Q 1858.53 169.85 1861.52 171.68
  A 1.15 1.14 52.3 0 0 1862.43 171.80
  C 1870.21 169.41 1876.54 164.08 1883.78 160.61
  A 3.38 3.36 -9.4 0 0 1885.68 157.97
  Q 1886.07 154.78 1886.45 151.32
  C 1887.22 144.43 1888.79 137.58 1889.92 130.74
  Q 1890.45 127.51 1891.93 125.65
  C 1895.30 121.44 1899.00 120.07 1904.70 120.05
  Q 1912.42 120.01 1920.11 119.42
  C 1928.33 118.79 1936.84 120.32 1944.75 120.01
  C 1949.01 119.84 1952.00 120.45 1954.85 123.86
  Q 1959.19 129.07 1960.24 135.99
  Q 1962.17 148.68 1962.50 152.26
  C 1963.50 162.94 1975.44 162.57 1980.93 169.28
  A 1.67 1.67 0.0 0 0 1982.71 169.81
  Q 1995.71 165.82 2008.08 160.06
  C 2010.11 159.12 2014.01 157.60 2016.76 158.46
  C 2023.92 160.70 2027.55 164.47 2031.30 171.43
  Q 2040.40 188.29 2044.57 195.19
  C 2048.39 201.52 2054.24 213.97 2046.72 219.48
  Q 2035.00 228.08 2023.03 237.23
  A 2.34 2.34 0.0 0 0 2022.33 240.07
  Q 2023.05 241.60 2022.98 244.00
  Q 2022.70 252.58 2023.95 261.08
  Q 2024.02 261.58 2024.41 261.89
  Q 2035.87 271.00 2047.65 279.58
  C 2049.44 280.89 2050.29 284.44 2050.60 286.95
  C 2051.14 291.32 2048.91 297.29 2046.90 300.88
  Q 2038.74 315.44 2030.68 330.04
  C 2026.59 337.44 2019.93 342.69 2010.99 339.49
  Q 2006.37 337.84 1994.35 332.58
  C 1991.61 331.38 1987.08 329.45 1984.58 330.62
  Q 1976.55 334.40 1968.89 338.90
  C 1966.65 340.21 1964.33 341.38 1963.31 343.91
  C 1961.67 348.00 1962.03 353.22 1961.23 357.32
  C 1960.92 358.90 1961.23 360.94 1960.90 362.13
  C 1959.27 368.03 1960.51 376.35 1953.97 379.87
  Q 1951.89 380.99 1947.33 381.00
  Q 1924.04 381.01 1900.75 381.00
  C 1893.27 381.00 1889.54 371.85 1889.07 365.57
  C 1888.72 360.89 1887.45 355.99 1886.91 351.79
  Q 1886.39 347.78 1885.68 343.80
  Q 1885.60 343.33 1885.73 342.87
  Q 1886.48 340.29 1884.55 338.93
  C 1880.63 336.18 1871.99 333.65 1865.86 330.23
  Q 1865.39 329.97 1864.90 330.17
  Z
  M 1945.37 326.13
  Q 1945.67 325.20 1946.64 325.16
  C 1955.37 324.75 1962.40 319.65 1970.57 314.27
  Q 1975.34 311.13 1979.35 307.09
  Q 1980.03 306.41 1980.88 305.89
  Q 1981.40 305.57 1981.96 305.79
  L 2012.24 317.75
  Q 2012.70 317.93 2013.14 317.74
  Q 2015.17 316.86 2016.14 314.85
  Q 2021.63 303.35 2027.31 293.66
  Q 2028.85 291.03 2026.41 289.09
  Q 2014.92 279.96 2003.32 270.94
  Q 2000.88 269.04 2001.42 265.90
  C 2002.14 261.68 2002.37 257.44 2002.83 253.18
  Q 2003.42 247.64 2002.92 243.31
  Q 2002.35 238.31 2001.35 233.37
  Q 2000.97 231.49 2000.58 229.91
  A 1.64 1.63 -25.7 0 1 2001.17 228.23
  Q 2012.78 219.30 2024.69 210.65
  Q 2026.27 209.50 2027.64 207.92
  A 1.27 1.27 0.0 0 0 2027.74 206.41
  Q 2020.69 195.56 2015.12 183.61
  C 2012.59 178.16 2007.63 182.74 2004.32 183.90
  Q 1994.26 187.43 1984.46 191.67
  Q 1981.05 193.14 1977.96 191.01
  Q 1970.40 185.80 1962.36 181.40
  C 1957.84 178.93 1952.95 177.15 1948.07 175.32
  C 1947.15 174.97 1946.59 175.00 1945.60 174.96
  Q 1945.14 174.94 1945.07 174.48
  L 1939.84 140.44
  Q 1939.78 140.05 1939.39 139.99
  Q 1924.57 137.84 1909.73 139.92
  Q 1909.22 140.00 1909.06 140.49
  C 1907.94 144.01 1908.00 147.91 1907.42 151.31
  Q 1907.03 153.61 1906.98 155.95
  C 1906.93 158.43 1906.19 160.62 1906.03 163.09
  C 1905.78 166.77 1904.84 170.23 1905.01 173.66
  A 2.27 2.26 79.2 0 1 1903.49 175.91
  C 1900.01 177.10 1896.17 177.67 1893.01 179.17
  Q 1880.43 185.15 1869.91 194.33
  C 1868.96 195.16 1867.53 195.63 1866.46 195.26
  Q 1854.08 191.00 1837.21 183.00
  A 0.93 0.93 0.0 0 0 1836.18 183.16
  Q 1834.89 184.34 1833.50 186.73
  Q 1827.20 197.53 1821.27 208.57
  A 1.37 1.32 -37.3 0 0 1821.13 209.49
  Q 1821.45 211.11 1822.64 212.12
  Q 1832.60 220.66 1844.91 229.53
  C 1846.48 230.66 1846.94 232.13 1848.10 233.65
  A 0.98 0.95 36.8 0 1 1848.24 234.53
  Q 1847.44 236.93 1847.30 239.41
  C 1847.15 242.26 1846.56 244.92 1846.67 247.75
  C 1846.93 254.32 1846.93 262.42 1849.24 268.55
  A 2.99 2.99 0.0 0 1 1848.20 272.03
  C 1839.82 278.06 1831.64 285.09 1822.72 290.55
  A 1.43 1.43 0.0 0 0 1822.18 292.40
  Q 1827.80 303.98 1834.55 315.44
  Q 1835.41 316.90 1836.97 318.43
  Q 1837.75 319.19 1838.77 318.79
  L 1866.93 307.73
  A 3.32 3.31 50.9 0 1 1869.97 308.05
  Q 1877.96 313.30 1886.06 318.27
  C 1891.16 321.40 1896.24 323.45 1901.73 325.38
  Q 1902.57 325.67 1903.34 326.16
  Q 1903.78 326.44 1903.88 326.95
  C 1905.35 334.47 1906.09 341.90 1906.99 349.50
  Q 1907.75 355.94 1909.14 359.92
  C 1909.79 361.76 1911.00 361.98 1912.75 362.00
  Q 1925.76 362.12 1938.05 361.96
  A 2.88 2.88 0.0 0 0 1940.88 359.37
  Q 1942.30 345.72 1944.12 331.87
  Q 1944.54 328.70 1945.37 326.13
  Z"
/>
<path fill="#9e918d" d="
  M 1299.96 352.30
  A 2.07 2.07 0.0 0 0 1302.00 354.00
  L 1473.25 354.00
  A 0.75 0.75 0.0 0 1 1474.00 354.75
  L 1474.00 372.25
  A 0.75 0.75 0.0 0 1 1473.25 373.00
  L 1280.50 373.00
  A 0.49 0.49 0.0 0 1 1280.01 372.51
  Q 1279.99 350.36 1280.01 328.03
  Q 1280.01 321.91 1281.01 318.58
  C 1283.48 310.34 1290.18 303.84 1297.38 299.15
  Q 1325.24 281.02 1353.14 262.93
  Q 1357.60 260.04 1359.58 255.19
  A 2.04 2.00 -46.9 0 0 1359.54 253.58
  C 1357.89 250.08 1356.83 246.24 1355.09 243.01
  C 1351.09 235.58 1347.38 227.28 1340.66 221.93
  C 1335.63 217.93 1334.31 212.90 1331.83 205.88
  C 1330.83 203.04 1331.14 200.66 1330.75 197.65
  C 1330.28 193.97 1333.20 187.38 1334.41 183.75
  C 1335.82 179.52 1335.89 173.72 1336.64 170.09
  C 1341.46 146.66 1359.71 126.46 1383.74 122.12
  C 1416.30 116.23 1445.26 134.31 1454.36 165.96
  C 1455.61 170.33 1455.99 175.51 1456.70 180.28
  C 1457.68 186.81 1462.16 193.63 1461.29 200.38
  C 1460.36 207.62 1457.11 217.51 1451.47 222.48
  C 1446.86 226.55 1443.89 233.84 1440.52 239.55
  Q 1436.10 247.02 1432.19 254.91
  A 0.67 0.67 0.0 0 0 1432.21 255.56
  C 1435.09 260.65 1440.68 263.42 1446.65 266.58
  C 1455.40 271.20 1463.23 276.19 1471.28 281.41
  C 1473.15 282.62 1474.30 283.94 1475.11 285.88
  A 0.83 0.82 -11.5 0 1 1474.35 287.02
  L 1442.98 287.04
  A 6.15 6.12 -30.4 0 1 1440.02 286.28
  C 1427.76 279.54 1417.80 275.11 1414.00 262.42
  C 1412.21 256.43 1412.14 251.45 1414.37 245.69
  Q 1415.42 243.01 1418.11 238.11
  Q 1424.23 227.00 1430.44 215.94
  Q 1432.61 212.07 1434.14 207.90
  C 1434.54 206.81 1437.58 205.96 1438.82 204.72
  C 1440.83 202.70 1440.94 198.84 1440.41 196.27
  Q 1440.30 195.70 1438.50 191.91
  Q 1437.02 188.81 1437.01 184.50
  Q 1436.99 176.20 1433.78 168.21
  C 1427.92 153.62 1417.80 143.52 1401.51 141.31
  C 1396.20 140.58 1389.99 141.98 1384.76 143.01
  C 1374.81 144.97 1363.83 154.90 1359.90 163.84
  C 1357.02 170.39 1355.52 177.02 1355.09 184.18
  Q 1354.76 189.68 1351.54 195.30
  C 1349.99 198.00 1351.62 201.55 1353.35 204.64
  Q 1353.60 205.09 1354.09 205.23
  L 1357.50 206.23
  Q 1358.02 206.39 1358.29 206.87
  Q 1366.56 221.82 1374.60 236.86
  Q 1377.95 243.12 1378.24 246.49
  C 1378.54 249.81 1379.41 253.04 1379.11 256.20
  Q 1377.63 271.33 1364.92 279.41
  Q 1341.52 294.29 1327.51 303.72
  Q 1323.80 306.21 1318.87 309.19
  C 1311.33 313.75 1301.39 318.96 1299.84 328.31
  Q 1297.81 340.49 1299.96 352.30
  Z"
/>
<path fill="#9e918d" d="
  M 330.33 318.09
  Q 329.96 318.05 329.53 318.29
  Q 285.14 343.71 240.91 369.41
  Q 238.24 370.96 234.77 372.14
  Q 232.59 372.88 230.73 372.24
  C 225.90 370.57 223.00 367.87 223.00 362.49
  Q 223.00 261.74 223.00 161.00
  Q 223.00 155.66 224.44 149.99
  Q 225.27 146.71 227.48 143.45
  C 232.70 135.75 240.21 128.86 251.00 128.96
  Q 285.63 129.27 320.25 128.28
  Q 330.26 128.00 340.24 128.28
  Q 374.99 129.29 409.75 129.01
  C 426.69 128.87 437.21 146.27 437.18 161.50
  Q 437.01 261.40 437.00 361.31
  Q 437.00 365.27 436.11 367.04
  C 432.83 373.57 423.85 371.76 418.87 368.86
  Q 375.05 343.38 331.18 318.38
  A 2.44 1.85 55.9 0 0 330.33 318.09
  Z
  M 246.20 150.62
  Q 245.66 150.90 244.55 152.42
  C 243.58 153.76 243.08 156.08 242.94 157.96
  C 242.47 163.89 242.01 169.66 242.01 175.71
  Q 241.96 259.57 242.02 343.51
  Q 242.02 344.08 242.52 343.79
  L 330.06 294.13
  A 1.18 1.17 44.3 0 1 331.23 294.12
  L 416.91 342.23
  A 0.73 0.73 0.0 0 0 418.00 341.59
  Q 418.01 260.72 417.99 179.43
  Q 417.99 173.09 417.64 168.09
  C 417.39 164.52 417.38 153.23 414.72 151.05
  Q 412.29 149.04 410.50 148.99
  C 393.84 148.56 377.20 148.01 360.50 148.00
  Q 328.87 147.98 297.25 148.02
  C 281.95 148.03 266.46 148.61 251.07 148.99
  C 249.26 149.03 247.74 149.84 246.20 150.62
  Z"
/>
<path fill="#9e918d" d="
  M 870.00 352.52
  L 869.99 376.72
  A 0.27 0.27 0.0 0 1 869.72 376.99
  L 851.50 377.00
  Q 851.00 377.00 851.00 376.50
  L 851.00 352.51
  A 0.51 0.51 0.0 0 0 850.49 352.00
  Q 806.49 351.99 762.45 352.01
  Q 757.08 352.01 755.10 351.39
  C 750.49 349.96 746.01 344.87 748.63 339.65
  Q 751.66 333.63 754.87 327.70
  Q 761.84 314.81 762.90 300.98
  C 763.36 294.91 764.02 289.40 764.01 283.98
  Q 763.95 257.55 764.04 231.11
  Q 764.08 217.89 765.20 211.19
  Q 768.45 191.70 779.73 175.02
  Q 782.09 171.54 790.48 162.21
  Q 799.62 152.05 811.59 145.46
  C 816.43 142.80 820.90 139.88 826.06 138.09
  Q 836.11 134.62 841.99 133.97
  C 845.34 133.60 848.30 133.05 851.36 133.03
  C 855.26 133.00 858.66 131.96 862.56 132.52
  C 866.72 133.13 870.57 132.91 874.88 133.61
  C 877.54 134.04 880.16 133.87 882.66 134.54
  Q 889.08 136.26 895.41 138.28
  C 901.22 140.14 907.77 143.75 912.88 147.22
  C 935.80 162.80 952.42 186.59 956.13 214.05
  Q 957.00 220.45 957.00 234.00
  Q 957.01 257.11 956.99 280.23
  Q 956.98 286.70 957.47 292.75
  C 958.43 304.88 959.62 316.40 965.29 326.48
  C 968.08 331.44 974.33 341.96 972.97 345.23
  C 969.92 352.55 965.19 352.02 957.39 352.01
  Q 913.94 351.95 870.49 352.02
  Q 870.00 352.03 870.00 352.52
  Z
  M 782.50 302.89
  Q 781.75 312.24 779.46 321.34
  Q 778.42 325.45 776.47 328.17
  A 2.45 2.44 -71.6 0 0 778.40 332.04
  C 794.44 332.40 810.85 332.98 827.00 332.99
  Q 860.75 333.01 894.51 333.00
  C 910.76 332.99 927.15 332.43 943.39 332.06
  A 1.63 1.63 0.0 0 0 944.75 329.59
  C 940.95 323.32 939.56 314.97 938.61 307.72
  Q 937.96 302.71 938.00 294.75
  Q 938.20 258.05 936.90 221.36
  C 936.66 214.67 934.95 210.24 933.15 204.38
  C 926.95 184.18 908.61 165.38 889.30 157.45
  C 877.55 152.63 866.41 152.78 852.08 153.02
  C 849.57 153.06 846.85 153.77 844.01 154.18
  Q 837.41 155.11 828.93 159.30
  Q 826.06 160.72 823.19 162.14
  C 809.05 169.11 795.55 185.04 789.56 199.44
  C 786.73 206.26 785.68 212.96 784.53 219.95
  Q 784.10 222.56 784.05 223.87
  Q 782.70 259.93 783.03 296.02
  C 783.05 298.27 782.68 300.59 782.50 302.89
  Z"
/>
<path fill="#9e918d" d="
  M 1883.19 263.71
  C 1880.85 257.03 1881.06 250.25 1880.52 243.54
  Q 1880.48 243.05 1880.65 242.60
  Q 1881.35 240.80 1882.30 237.00
  C 1887.17 217.71 1905.83 205.14 1925.25 204.58
  Q 1927.18 204.53 1932.94 205.52
  C 1947.95 208.11 1959.51 218.28 1965.03 232.25
  C 1966.66 236.38 1967.21 241.12 1967.91 245.67
  Q 1968.45 249.23 1967.92 252.81
  C 1967.41 256.16 1967.02 259.56 1966.05 262.66
  C 1962.26 274.80 1953.80 284.14 1941.88 288.78
  C 1939.70 289.63 1937.59 290.58 1935.27 290.96
  C 1926.82 292.35 1921.97 292.70 1914.46 290.89
  C 1900.11 287.43 1888.15 277.88 1883.19 263.71
  Z
  M 1947.68 248.67
  A 23.11 23.11 0.0 0 0 1924.57 225.56
  A 23.11 23.11 0.0 0 0 1901.46 248.67
  A 23.11 23.11 0.0 0 0 1924.57 271.78
  A 23.11 23.11 0.0 0 0 1947.68 248.67
  Z"
/>
<path fill="#9e918d" d="
  M 1513.55 306.00
  L 1559.45 306.00
  A 0.55 0.55 0.0 0 1 1560.00 306.55
  L 1560.00 324.45
  A 0.55 0.55 0.0 0 1 1559.45 325.00
  L 1513.55 325.00
  A 0.55 0.55 0.0 0 0 1513.00 325.55
  L 1513.00 372.45
  A 0.55 0.55 0.0 0 1 1512.45 373.00
  L 1494.55 373.00
  A 0.55 0.55 0.0 0 1 1494.00 372.45
  L 1494.00 324.55
  A 0.55 0.55 0.0 0 0 1493.45 324.00
  L 1446.55 324.00
  A 0.55 0.55 0.0 0 1 1446.00 323.45
  L 1446.00 306.55
  A 0.55 0.55 0.0 0 1 1446.55 306.00
  L 1493.45 306.00
  A 0.55 0.55 0.0 0 0 1494.00 305.45
  L 1494.00 258.56
  A 0.55 0.55 0.0 0 1 1494.55 258.01
  L 1512.45 258.00
  A 0.55 0.55 0.0 0 1 1513.00 258.55
  L 1513.00 305.45
  A 0.55 0.55 0.0 0 0 1513.55 306.00
  Z"
/>
</svg>
